# Blender v2.79 (sub 0) OBJ File: ''
# www.blender.org
mtllib testt.mtl
o Icosphere
v 0.000000 0.000000 0.000000
v 0.723607 0.552781 0.525725
v -0.276388 0.552780 0.850649
v -0.894426 0.552784 0.000000
v -0.276388 0.552780 -0.850649
v 0.723607 0.552781 -0.525725
v 0.276388 1.447220 0.850649
v -0.723607 1.447219 0.525725
v -0.723607 1.447219 -0.525725
v 0.276388 1.447220 -0.850649
v 0.894426 1.447216 0.000000
v 0.000000 2.000000 0.000000
v -0.162456 0.149346 0.499995
v 0.425323 0.149346 0.309011
v 0.262869 0.474262 0.809012
v 0.850648 0.474264 0.000000
v 0.425323 0.149346 -0.309011
v -0.525730 0.149348 0.000000
v -0.688189 0.474264 0.499997
v -0.162456 0.149346 -0.499995
v -0.688189 0.474264 -0.499997
v 0.262869 0.474262 -0.809012
v 0.951058 1.000000 0.309013
v 0.951058 1.000000 -0.309013
v 0.000000 1.000000 1.000000
v 0.587786 1.000000 0.809017
v -0.951058 1.000000 0.309013
v -0.587786 1.000000 0.809017
v -0.587786 1.000000 -0.809017
v -0.951058 1.000000 -0.309013
v 0.587786 1.000000 -0.809017
v 0.000000 1.000000 -1.000000
v 0.688189 1.525736 0.499997
v -0.262869 1.525738 0.809012
v -0.850648 1.525736 0.000000
v -0.262869 1.525738 -0.809012
v 0.688189 1.525736 -0.499997
v 0.162456 1.850654 0.499995
v 0.525730 1.850652 0.000000
v -0.425323 1.850654 0.309011
v -0.425323 1.850654 -0.309011
v 0.162456 1.850654 -0.499995
v -5.541796 0.000000 -5.541796
v -5.541796 -2.000000 -5.541796
v -5.541796 0.000000 5.541796
v -5.541796 -2.000000 5.541796
v -3.284228 0.000000 -1.863607
v -3.284228 3.712584 -1.863607
v -3.284228 0.000000 -3.863607
v -3.284228 3.712584 -3.863607
v -1.284228 0.000000 -1.863607
v -1.284228 3.712584 -1.863607
v -1.284228 0.000000 -3.863607
v -1.284228 3.712584 -3.863607
v 5.541796 0.000000 -5.541796
v 5.541796 -2.000000 -5.541796
v 5.541796 0.000000 5.541796
v 5.541796 -2.000000 5.541796
vt 0.936499 0.467749
vt 0.936499 0.439502
vt 0.908252 0.467749
vt 0.967749 0.186499
vt 0.967749 0.158252
vt 0.939502 0.186499
vt 0.905249 0.467749
vt 0.877002 0.467749
vt 0.905249 0.439502
vt 0.876001 0.438501
vt 0.876001 0.466748
vt 0.904248 0.438501
vt 0.907251 0.438501
vt 0.935498 0.438501
vt 0.907251 0.466748
vt 0.905249 0.217749
vt 0.877002 0.217749
vt 0.905249 0.189502
vt 0.967749 0.030249
vt 0.939502 0.030249
vt 0.967749 0.002002
vt 0.998999 0.061499
vt 0.970752 0.061499
vt 0.998999 0.033252
vt 0.905249 0.061499
vt 0.877002 0.061499
vt 0.905249 0.033252
vt 0.998999 0.217749
vt 0.970752 0.217749
vt 0.998999 0.189502
vt 0.905249 0.030249
vt 0.877002 0.030249
vt 0.905249 0.002002
vt 0.936499 0.061499
vt 0.908252 0.061499
vt 0.936499 0.033252
vt 0.967749 0.248999
vt 0.967749 0.220752
vt 0.939502 0.248999
vt 0.905249 0.123999
vt 0.905249 0.095752
vt 0.877002 0.123999
vt 0.998999 0.030249
vt 0.998999 0.002002
vt 0.970752 0.030249
vt 0.905249 0.498999
vt 0.905249 0.470752
vt 0.877002 0.498999
vt 0.936499 0.186499
vt 0.908252 0.186499
vt 0.936499 0.158252
vt 0.936499 0.498999
vt 0.908252 0.498999
vt 0.936499 0.470752
vt 0.905249 0.436499
vt 0.877002 0.436499
vt 0.905249 0.408252
vt 0.936499 0.248999
vt 0.908252 0.248999
vt 0.936499 0.220752
vt 0.936499 0.408252
vt 0.908252 0.436499
vt 0.936499 0.436499
vt 0.967749 0.092749
vt 0.939502 0.092749
vt 0.967749 0.064502
vt 0.876001 0.497998
vt 0.876001 0.469751
vt 0.904248 0.469751
vt 0.877002 0.405249
vt 0.905249 0.377002
vt 0.905249 0.405249
vt 0.908252 0.405249
vt 0.936499 0.377002
vt 0.936499 0.405249
vt 0.908252 0.217749
vt 0.936499 0.217749
vt 0.936499 0.189502
vt 0.905249 0.127002
vt 0.877002 0.155249
vt 0.905249 0.155249
vt 0.970752 0.186499
vt 0.998999 0.158252
vt 0.998999 0.186499
vt 0.935498 0.469751
vt 0.907251 0.469751
vt 0.907251 0.497998
vt 0.876001 0.404248
vt 0.904248 0.376001
vt 0.876001 0.376001
vt 0.907251 0.376001
vt 0.907251 0.404248
vt 0.935498 0.376001
vt 0.904248 0.407251
vt 0.876001 0.407251
vt 0.876001 0.435498
vt 0.935498 0.407251
vt 0.907251 0.435498
vt 0.907251 0.407251
vt 0.938501 0.091748
vt 0.966748 0.063501
vt 0.938501 0.063501
vt 0.877002 0.248999
vt 0.905249 0.248999
vt 0.905249 0.220752
vt 0.936499 0.064502
vt 0.908252 0.092749
vt 0.936499 0.092749
vt 0.908252 0.030249
vt 0.936499 0.030249
vt 0.936499 0.002002
vt 0.905249 0.064502
vt 0.905249 0.092749
vt 0.877002 0.092749
vt 0.998999 0.095752
vt 0.970752 0.123999
vt 0.998999 0.123999
vt 0.939502 0.217749
vt 0.967749 0.217749
vt 0.967749 0.189502
vt 0.967749 0.095752
vt 0.967749 0.123999
vt 0.939502 0.123999
vt 0.998999 0.064502
vt 0.970752 0.092749
vt 0.998999 0.092749
vt 0.970752 0.248999
vt 0.998999 0.248999
vt 0.998999 0.220752
vt 0.969751 0.091748
vt 0.969751 0.063501
vt 0.997998 0.063501
vt 0.938501 0.122998
vt 0.966748 0.094751
vt 0.938501 0.094751
vt 0.936499 0.123999
vt 0.908252 0.123999
vt 0.936499 0.095752
vt 0.969751 0.122998
vt 0.969751 0.094751
vt 0.997998 0.094751
vt 0.876001 0.091748
vt 0.904248 0.063501
vt 0.876001 0.063501
vt 0.967749 0.061499
vt 0.939502 0.061499
vt 0.967749 0.033252
vt 0.907251 0.091748
vt 0.907251 0.063501
vt 0.935498 0.063501
vt 0.876001 0.122998
vt 0.904248 0.094751
vt 0.876001 0.094751
vt 0.907251 0.094751
vt 0.907251 0.122998
vt 0.935498 0.094751
vt 0.966748 0.001001
vt 0.938501 0.001001
vt 0.938501 0.029248
vt 0.969751 0.029248
vt 0.997998 0.001001
vt 0.969751 0.001001
vt 0.938501 0.032251
vt 0.938501 0.060498
vt 0.966748 0.032251
vt 0.997998 0.032251
vt 0.969751 0.032251
vt 0.969751 0.060498
vt 0.904248 0.001001
vt 0.876001 0.029248
vt 0.876001 0.001001
vt 0.935498 0.001001
vt 0.907251 0.029248
vt 0.907251 0.001001
vt 0.904248 0.032251
vt 0.876001 0.032251
vt 0.876001 0.060498
vt 0.935498 0.032251
vt 0.907251 0.060498
vt 0.907251 0.032251
vt 0.966748 0.188501
vt 0.938501 0.216748
vt 0.938501 0.188501
vt 0.997998 0.188501
vt 0.969751 0.188501
vt 0.969751 0.216748
vt 0.938501 0.247998
vt 0.966748 0.219751
vt 0.938501 0.219751
vt 0.969751 0.219751
vt 0.969751 0.247998
vt 0.997998 0.219751
vt 0.904248 0.188501
vt 0.876001 0.188501
vt 0.876001 0.216748
vt 0.907251 0.216748
vt 0.935498 0.188501
vt 0.907251 0.188501
vt 0.905249 0.186499
vt 0.877002 0.186499
vt 0.905249 0.158252
vt 0.936499 0.127002
vt 0.936499 0.155249
vt 0.908252 0.155249
vt 0.970752 0.155249
vt 0.998999 0.127002
vt 0.998999 0.155249
vt 0.967749 0.127002
vt 0.967749 0.155249
vt 0.939502 0.155249
vt 0.876001 0.247998
vt 0.876001 0.219751
vt 0.904248 0.219751
vt 0.907251 0.247998
vt 0.935498 0.219751
vt 0.907251 0.219751
vt 0.938501 0.126001
vt 0.938501 0.154248
vt 0.966748 0.126001
vt 0.997998 0.126001
vt 0.969751 0.126001
vt 0.969751 0.154248
vt 0.966748 0.157251
vt 0.938501 0.185498
vt 0.938501 0.157251
vt 0.969751 0.185498
vt 0.997998 0.157251
vt 0.969751 0.157251
vt 0.904248 0.126001
vt 0.876001 0.126001
vt 0.876001 0.154248
vt 0.907251 0.154248
vt 0.935498 0.126001
vt 0.907251 0.126001
vt 0.904248 0.157251
vt 0.876001 0.157251
vt 0.876001 0.185498
vt 0.907251 0.185498
vt 0.907251 0.157251
vt 0.935498 0.157251
vt 0.627002 0.498999
vt 0.748999 0.002002
vt 0.748999 0.498999
vt 0.502002 0.873999
vt 0.748999 0.752002
vt 0.748999 0.873999
vt 0.873999 0.252002
vt 0.752002 0.498999
vt 0.873999 0.498999
vt 0.502002 0.998999
vt 0.748999 0.877002
vt 0.748999 0.998999
vt 0.873999 0.002002
vt 0.752002 0.248999
vt 0.873999 0.248999
vt 0.873999 0.752002
vt 0.752002 0.873999
vt 0.873999 0.873999
vt 0.998999 0.252002
vt 0.877002 0.373999
vt 0.998999 0.373999
vt 0.498999 0.502002
vt 0.002002 0.998999
vt 0.498999 0.998999
vt 0.998999 0.502002
vt 0.502002 0.623999
vt 0.998999 0.623999
vt 0.502002 0.498999
vt 0.623999 0.002002
vt 0.623999 0.498999
vt 0.998999 0.627002
vt 0.502002 0.748999
vt 0.998999 0.748999
vt 0.498999 0.002002
vt 0.002002 0.498999
vt 0.498999 0.498999
vt 0.997998 0.626001
vt 0.501001 0.626001
vt 0.501001 0.747998
vt 0.872998 0.001001
vt 0.751001 0.001001
vt 0.751001 0.247998
vt 0.501001 0.997998
vt 0.501001 0.876001
vt 0.747998 0.876001
vt 0.872998 0.251001
vt 0.751001 0.251001
vt 0.751001 0.497998
vt 0.501001 0.872998
vt 0.501001 0.751001
vt 0.747998 0.751001
vt 0.997998 0.251001
vt 0.876001 0.251001
vt 0.876001 0.372998
vt 0.872998 0.751001
vt 0.751001 0.751001
vt 0.751001 0.872998
vt 0.497998 0.001001
vt 0.001001 0.001001
vt 0.001001 0.497998
vt 0.501001 0.497998
vt 0.501001 0.001001
vt 0.622998 0.001001
vt 0.997998 0.501001
vt 0.501001 0.501001
vt 0.501001 0.622998
vt 0.626001 0.497998
vt 0.626001 0.001001
vt 0.747998 0.001001
vt 0.497998 0.501001
vt 0.001001 0.501001
vt 0.001001 0.997998
vn 0.1024 -0.9435 0.3151
vn 0.7002 -0.6617 0.2680
vn -0.2680 -0.9435 0.1947
vn -0.2680 -0.9435 -0.1947
vn 0.1024 -0.9435 -0.3151
vn 0.9050 -0.3304 0.2680
vn 0.0247 -0.3304 0.9435
vn -0.8897 -0.3304 0.3151
vn -0.5746 -0.3304 -0.7488
vn 0.5346 -0.3304 -0.7779
vn 0.8026 -0.1256 0.5831
vn -0.3066 -0.1256 0.9435
vn -0.9921 -0.1256 0.0000
vn -0.3066 -0.1256 -0.9435
vn 0.8026 -0.1256 -0.5831
vn 0.4089 0.6617 0.6284
vn -0.4713 0.6617 0.5831
vn -0.7002 0.6617 -0.2680
vn 0.0385 0.6617 -0.7488
vn 0.7240 0.6617 -0.1947
vn 0.2680 0.9435 -0.1947
vn 0.4911 0.7947 -0.3568
vn 0.4089 0.6617 -0.6284
vn -0.1024 0.9435 -0.3151
vn -0.1876 0.7947 -0.5773
vn -0.4713 0.6617 -0.5831
vn -0.3313 0.9435 0.0000
vn -0.6071 0.7947 0.0000
vn -0.7002 0.6617 0.2680
vn -0.1024 0.9435 0.3151
vn -0.1876 0.7947 0.5773
vn 0.0385 0.6617 0.7488
vn 0.2680 0.9435 0.1947
vn 0.4911 0.7947 0.3568
vn 0.7240 0.6617 0.1947
vn 0.8897 0.3304 -0.3151
vn 0.7947 0.1876 -0.5773
vn 0.5746 0.3304 -0.7488
vn -0.0247 0.3304 -0.9435
vn -0.3035 0.1876 -0.9342
vn -0.5346 0.3304 -0.7779
vn -0.9050 0.3304 -0.2680
vn -0.9822 0.1876 0.0000
vn -0.9050 0.3304 0.2680
vn -0.5346 0.3304 0.7779
vn -0.3035 0.1876 0.9342
vn -0.0247 0.3304 0.9435
vn 0.5746 0.3304 0.7488
vn 0.7947 0.1876 0.5773
vn 0.8897 0.3304 0.3151
vn 0.3066 0.1256 -0.9435
vn 0.3035 -0.1876 -0.9342
vn 0.0247 -0.3304 -0.9435
vn -0.8026 0.1256 -0.5831
vn -0.7947 -0.1876 -0.5773
vn -0.8897 -0.3304 -0.3151
vn -0.8026 0.1256 0.5831
vn -0.7947 -0.1876 0.5773
vn -0.5746 -0.3304 0.7488
vn 0.3066 0.1256 0.9435
vn 0.3035 -0.1876 0.9342
vn 0.5346 -0.3304 0.7779
vn 0.9921 0.1256 0.0000
vn 0.9822 -0.1876 0.0000
vn 0.9050 -0.3304 -0.2680
vn 0.4713 -0.6617 -0.5831
vn 0.1876 -0.7947 -0.5773
vn -0.0385 -0.6617 -0.7488
vn -0.4089 -0.6617 -0.6284
vn -0.4911 -0.7947 -0.3568
vn -0.7240 -0.6617 -0.1947
vn -0.7240 -0.6617 0.1947
vn -0.4911 -0.7947 0.3568
vn -0.4089 -0.6617 0.6284
vn 0.7002 -0.6617 -0.2680
vn 0.6071 -0.7947 0.0000
vn 0.3313 -0.9435 0.0000
vn -0.0385 -0.6617 0.7488
vn 0.1876 -0.7947 0.5773
vn 0.4713 -0.6617 0.5831
vn -1.0000 0.0000 0.0000
vn 0.0000 0.0000 -1.0000
vn 1.0000 0.0000 0.0000
vn 0.0000 0.0000 1.0000
vn 0.0000 -1.0000 0.0000
vn 0.0000 1.0000 0.0000
usemtl Material.001
s off
f 1/1/1 14/2/1 13/3/1
f 2/4/2 14/5/2 16/6/2
f 1/7/3 13/8/3 18/9/3
f 1/10/4 18/11/4 20/12/4
f 1/13/5 20/14/5 17/15/5
f 2/16/6 16/17/6 23/18/6
f 3/19/7 15/20/7 25/21/7
f 4/22/8 19/23/8 27/24/8
f 5/25/9 21/26/9 29/27/9
f 6/28/10 22/29/10 31/30/10
f 2/31/11 23/32/11 26/33/11
f 3/34/12 25/35/12 28/36/12
f 4/37/13 27/38/13 30/39/13
f 5/40/14 29/41/14 32/42/14
f 6/43/15 31/44/15 24/45/15
f 7/46/16 33/47/16 38/48/16
f 8/49/17 34/50/17 40/51/17
f 9/52/18 35/53/18 41/54/18
f 10/55/19 36/56/19 42/57/19
f 11/58/20 37/59/20 39/60/20
f 39/61/21 42/62/21 12/63/21
f 39/64/22 37/65/22 42/66/22
f 37/67/23 10/68/23 42/69/23
f 42/70/24 41/71/24 12/72/24
f 42/73/25 36/74/25 41/75/25
f 36/76/26 9/77/26 41/78/26
f 41/79/27 40/80/27 12/81/27
f 41/82/28 35/83/28 40/84/28
f 35/85/29 8/86/29 40/87/29
f 40/88/30 38/89/30 12/90/30
f 40/91/31 34/92/31 38/93/31
f 34/94/32 7/95/32 38/96/32
f 38/97/33 39/98/33 12/99/33
f 38/100/34 33/101/34 39/102/34
f 33/103/35 11/104/35 39/105/35
f 24/106/36 37/107/36 11/108/36
f 24/109/37 31/110/37 37/111/37
f 31/112/38 10/113/38 37/114/38
f 32/115/39 36/116/39 10/117/39
f 32/118/40 29/119/40 36/120/40
f 29/121/41 9/122/41 36/123/41
f 30/124/42 35/125/42 9/126/42
f 30/127/43 27/128/43 35/129/43
f 27/130/44 8/131/44 35/132/44
f 28/133/45 34/134/45 8/135/45
f 28/136/46 25/137/46 34/138/46
f 25/139/47 7/140/47 34/141/47
f 26/142/48 33/143/48 7/144/48
f 26/145/49 23/146/49 33/147/49
f 23/148/50 11/149/50 33/150/50
f 31/151/51 32/152/51 10/153/51
f 31/154/52 22/155/52 32/156/52
f 22/157/53 5/158/53 32/159/53
f 29/160/54 30/161/54 9/162/54
f 29/163/55 21/164/55 30/165/55
f 21/166/56 4/167/56 30/168/56
f 27/169/57 28/170/57 8/171/57
f 27/172/58 19/173/58 28/174/58
f 19/175/59 3/176/59 28/177/59
f 25/178/60 26/179/60 7/180/60
f 25/181/61 15/182/61 26/183/61
f 15/184/62 2/185/62 26/186/62
f 23/187/63 24/188/63 11/189/63
f 23/190/64 16/191/64 24/192/64
f 16/193/65 6/194/65 24/195/65
f 17/196/66 22/197/66 6/198/66
f 17/199/67 20/200/67 22/201/67
f 20/202/68 5/203/68 22/204/68
f 20/205/69 21/206/69 5/207/69
f 20/208/70 18/209/70 21/210/70
f 18/211/71 4/212/71 21/213/71
f 18/214/72 19/215/72 4/216/72
f 18/217/73 13/218/73 19/219/73
f 13/220/74 3/221/74 19/222/74
f 16/223/75 17/224/75 6/225/75
f 16/226/76 14/227/76 17/228/76
f 14/229/77 1/230/77 17/231/77
f 13/232/78 15/233/78 3/234/78
f 13/235/79 14/236/79 15/237/79
f 14/238/80 2/239/80 15/240/80
f 45/241/81 44/242/81 46/243/81
f 48/244/81 49/245/81 47/246/81
f 50/247/82 53/248/82 49/249/82
f 54/250/83 51/251/83 53/252/83
f 52/253/84 47/254/84 51/255/84
f 53/256/85 47/257/85 49/258/85
f 50/259/86 52/260/86 54/261/86
f 56/262/85 46/263/85 44/264/85
f 57/265/84 46/266/84 58/267/84
f 55/268/83 58/269/83 56/270/83
f 43/271/82 56/272/82 44/273/82
f 43/274/86 57/275/86 55/276/86
f 45/277/81 43/278/81 44/279/81
f 48/280/81 50/281/81 49/282/81
f 50/283/82 54/284/82 53/285/82
f 54/286/83 52/287/83 51/288/83
f 52/289/84 48/290/84 47/291/84
f 53/292/85 51/293/85 47/294/85
f 50/295/86 48/296/86 52/297/86
f 56/298/85 58/299/85 46/300/85
f 57/301/84 45/302/84 46/303/84
f 55/304/83 57/305/83 58/306/83
f 43/307/82 55/308/82 56/309/82
f 43/310/86 45/311/86 57/312/86
